<?xml version="1.0" standalone="no"?>
<!DOCTYPE svg PUBLIC "-//W3C//DTD SVG 20010904//EN"
 "http://www.w3.org/TR/2001/REC-SVG-20010904/DTD/svg10.dtd">
<svg version="1.0" xmlns="http://www.w3.org/2000/svg"
 width="77.000000pt" height="77.000000pt" viewBox="0 0 77.000000 77.000000"
 preserveAspectRatio="xMidYMid meet">
<metadata>
Created by potrace 1.11, written by Peter Selinger 2001-2013
</metadata>
<g transform="translate(0.000000,77.000000) scale(0.100000,-0.100000)"
fill="#000000" stroke="none">
<path d="M285 735 c-11 -8 -30 -16 -42 -18 -12 -2 -32 -12 -44 -23 -15 -12
-20 -14 -15 -4 4 8 0 6 -9 -5 -9 -11 -21 -19 -26 -17 -5 1 -9 -2 -9 -8 0 -5
-8 -10 -17 -10 -15 0 -16 -2 -3 -10 14 -9 7 -14 -13 -11 -5 1 -6 -3 -3 -8 4
-5 -4 -19 -16 -31 -13 -12 -24 -25 -24 -31 -1 -5 -2 -14 -3 -20 0 -5 -5 -8
-10 -5 -5 4 -7 -3 -4 -14 3 -11 1 -20 -4 -20 -5 0 -9 -40 -10 -90 0 -49 3 -90
7 -90 4 0 8 -12 8 -27 0 -15 5 -29 11 -31 6 -2 11 -10 11 -19 0 -8 7 -21 15
-30 8 -8 12 -20 8 -26 -3 -7 -3 -9 2 -5 9 8 35 -15 35 -32 0 -6 4 -9 9 -5 10
6 37 -34 33 -48 -1 -5 2 -6 8 -2 8 5 7 12 -2 23 -7 10 -1 7 13 -6 14 -12 29
-19 34 -15 4 5 5 -1 1 -11 -6 -17 -5 -17 11 -5 9 8 14 9 11 4 -4 -6 3 -17 15
-25 21 -12 21 -12 7 5 -14 17 -14 18 10 5 14 -7 26 -13 28 -12 8 6 22 0 18 -7
-4 -5 1 -8 10 -7 8 1 20 9 25 17 7 11 9 11 9 1 0 -8 5 -10 12 -6 7 5 9 2 6 -7
-4 -10 1 -15 13 -15 14 0 15 3 7 14 -9 10 -8 12 3 10 8 -2 17 -7 21 -13 4 -5
10 -6 14 -2 4 3 1 15 -7 24 -13 16 -12 17 3 5 13 -11 23 -10 52 2 32 13 36 13
36 0 0 -8 4 -13 10 -9 5 3 7 12 4 19 -3 8 -1 17 5 21 6 3 14 -1 17 -9 5 -12
10 -10 30 11 19 20 21 29 13 40 -10 11 -8 12 6 7 14 -6 16 -4 10 7 -7 11 -6
12 7 2 18 -15 29 -7 21 15 -5 11 -3 13 8 7 12 -8 12 -6 0 8 -12 15 -12 17 3
11 11 -4 16 -1 16 10 0 10 -6 14 -17 10 -15 -5 -15 -4 1 6 14 10 20 9 28 -1 8
-11 9 -10 4 4 -6 20 3 49 14 42 11 -7 6 22 -5 32 -4 4 -5 2 0 -6 5 -10 4 -12
-4 -7 -16 10 -2 29 17 21 14 -5 14 -4 -1 13 -15 17 -15 20 0 42 15 22 15 23 0
17 -22 -8 -22 2 0 18 13 9 13 14 3 20 -9 6 -11 4 -5 -5 5 -8 4 -11 -2 -7 -6 4
-8 19 -5 33 4 21 2 25 -9 19 -11 -6 -12 -5 -1 6 17 19 15 32 -4 25 -14 -5 -15
-4 -4 9 7 8 8 15 2 15 -8 0 -21 26 -26 55 -1 6 -8 9 -15 7 -7 -1 -10 1 -7 6 2
4 -6 21 -20 38 -14 16 -23 22 -19 14 4 -8 -1 -6 -9 4 -9 11 -16 24 -16 29 0 4
-5 5 -10 2 -6 -3 -13 1 -16 9 -3 9 -10 13 -15 10 -5 -3 -9 0 -9 6 0 7 -7 10
-15 6 -8 -3 -15 -1 -15 4 0 6 -6 10 -14 10 -8 0 -17 6 -19 13 -4 9 -6 8 -6 -2
-1 -11 -6 -10 -26 3 -17 12 -25 13 -25 4 0 -9 -3 -9 -11 -1 -7 7 -21 8 -39 3
-20 -6 -30 -4 -34 3 -3 9 -5 8 -5 0 -1 -7 -6 -13 -12 -13 -5 0 -7 5 -4 10 8
13 4 12 -20 -5z m306 -604 c5 8 9 9 9 3 0 -6 -6 -16 -13 -22 -10 -8 -13 -6
-14 11 0 12 1 16 4 8 5 -11 7 -11 14 0z"/>
<path d="M500 60 c-8 -5 -12 -12 -9 -15 4 -3 12 1 19 10 14 17 11 19 -10 5z"/>
</g>
</svg>
